<svg width="672" height="373" viewBox="0 0 672 373" fill="none" xmlns="http://www.w3.org/2000/svg">
<path d="M621.308 7H671.996V186.2H621.308V7ZM552.188 186.2H501.5V7H552.188V186.2ZM624.892 116.312H548.604V74.328H624.892V116.312Z" fill="black"/>
<path d="M374.04 186.2V47.192H319V7H479.512V47.192H424.728V186.2H374.04Z" fill="black"/>
<path d="M141.008 0C174.8 0 203.984 6.65601 228.56 19.968C253.477 33.28 272.763 53.0773 286.416 79.36C300.411 105.301 307.408 137.728 307.408 176.64C307.408 218.283 299.216 253.781 282.832 283.136C266.789 312.149 244.432 334.336 215.76 349.696C187.429 365.056 154.32 372.736 116.432 372.736C96.6346 372.736 77.52 370.347 59.088 365.568C40.656 361.131 24.784 354.816 11.472 346.624L48.336 273.92C58.576 281.088 69.1573 286.037 80.08 288.768C91.344 291.157 102.779 292.352 114.384 292.352C142.032 292.352 164.048 283.989 180.432 267.264C196.816 250.539 205.008 226.133 205.008 194.048C205.008 188.245 205.008 182.272 205.008 176.128C205.008 169.643 204.496 163.157 203.472 156.672L228.56 177.664C222.416 190.293 214.395 200.875 204.496 209.408C194.597 217.941 182.992 224.427 169.68 228.864C156.368 233.301 141.179 235.52 124.112 235.52C101.584 235.52 80.9333 230.912 62.16 221.696C43.728 212.139 28.88 198.997 17.616 182.272C6.35197 165.205 0.719971 145.237 0.719971 122.368C0.719971 97.4507 7.03464 75.9467 19.664 57.856C32.2933 39.424 49.1893 25.2587 70.352 15.36C91.5146 5.12001 115.067 0 141.008 0ZM147.664 72.192C138.107 72.192 129.744 74.0693 122.576 77.824C115.408 81.5787 109.605 86.8694 105.168 93.696C101.072 100.181 99.024 108.203 99.024 117.76C99.024 131.413 103.461 142.336 112.336 150.528C121.552 158.72 133.499 162.816 148.176 162.816C158.075 162.816 166.779 160.939 174.288 157.184C181.797 153.429 187.6 148.139 191.696 141.312C195.792 134.485 197.84 126.464 197.84 117.248C197.84 108.373 195.792 100.693 191.696 94.208C187.6 87.3813 181.797 82.0907 174.288 78.336C166.779 74.24 157.904 72.192 147.664 72.192Z" fill="black"/>
</svg>
