<svg width="1587" height="373" viewBox="0 0 1587 373" fill="none" xmlns="http://www.w3.org/2000/svg">
<path fill-rule="evenodd" clip-rule="evenodd" d="M683.37 372.74C786.299 372.74 869.74 289.299 869.74 186.37C869.74 83.4407 786.299 0 683.37 0C580.441 0 497 83.4407 497 186.37C497 289.299 580.441 372.74 683.37 372.74ZM682.851 280.334C734.459 280.334 776.295 238.497 776.295 186.889C776.295 135.281 734.459 93.4446 682.851 93.4446C631.243 93.4446 589.406 135.281 589.406 186.889C589.406 238.497 631.243 280.334 682.851 280.334Z" fill="black"/>
<circle cx="683.37" cy="186.37" r="79.4279" fill="black"/>
<path d="M0 365.4V7H101.376V365.4H0Z" fill="black"/>
<path d="M1007.18 145.752H1173.58V221.528H1007.18V145.752ZM1014.35 287.064H1201.74V365.4H914V7H1195.09V85.336H1014.35V287.064Z" fill="black"/>
<path d="M1246 365.4V7H1329.46L1527.09 245.592H1487.66V7H1586.99V365.4H1503.54L1305.9 126.808H1345.33V365.4H1246Z" fill="black"/>
<path d="M343.12 372.736C314.789 372.736 288.507 368.299 264.272 359.424C240.379 350.208 219.557 337.237 201.808 320.512C184.4 303.787 170.747 284.16 160.848 261.632C150.949 238.763 146 213.675 146 186.368C146 159.061 150.949 134.144 160.848 111.616C170.747 88.7467 184.4 68.9493 201.808 52.224C219.557 35.4987 240.379 22.6987 264.272 13.824C288.507 4.608 314.789 0 343.12 0C376.229 0 405.755 5.80267 431.696 17.408C457.979 29.0133 479.824 45.7387 497.232 67.584L432.72 125.952C421.115 112.299 408.315 101.888 394.32 94.72C380.667 87.552 365.307 83.968 348.24 83.968C333.563 83.968 320.08 86.3574 307.792 91.136C295.504 95.9147 284.923 102.912 276.048 112.128C267.515 121.003 260.688 131.755 255.568 144.384C250.789 157.013 248.4 171.008 248.4 186.368C248.4 201.728 250.789 215.723 255.568 228.352C260.688 240.981 267.515 251.904 276.048 261.12C284.923 269.995 295.504 276.821 307.792 281.6C320.08 286.379 333.563 288.768 348.24 288.768C365.307 288.768 380.667 285.184 394.32 278.016C408.315 270.848 421.115 260.437 432.72 246.784L497.232 305.152C479.824 326.656 457.979 343.381 431.696 355.328C405.755 366.933 376.229 372.736 343.12 372.736Z" fill="black"/>
</svg>
